<svg width="173" height="27" viewBox="0 0 173 27" fill="none" xmlns="http://www.w3.org/2000/svg">
<path d="M14.0312 0.844443L17.6023 8.48826C17.7575 8.65091 17.9128 8.81357 18.068 8.81357L25.9866 9.952C26.4524 9.952 26.6077 10.6025 26.2971 10.9278L20.5523 16.7826C20.397 16.9452 20.397 17.1079 20.397 17.2705L21.7944 25.5649C21.9497 26.0528 21.3286 26.3781 21.0181 26.2154L13.7206 22.4748C13.5654 22.4748 13.4101 22.4748 13.2549 22.4748L6.11268 26.3781C5.64687 26.5407 5.18107 26.2154 5.33635 25.7275L6.73373 17.4332C6.73373 17.2705 6.73373 17.1079 6.57849 16.9452L0.6784 10.9278C0.367873 10.6025 0.523137 10.1146 0.988934 10.1146L8.90745 8.97617C9.06268 8.97617 9.21797 8.81357 9.37321 8.65091L12.9443 0.844443C13.2549 0.35654 13.8759 0.35654 14.0312 0.844443Z" fill="#FFC107"/>
<path d="M50.4916 0.844443L54.0627 8.48826C54.218 8.65091 54.3732 8.81357 54.5285 8.81357L62.447 9.952C62.9128 9.952 63.0681 10.6025 62.7575 10.9278L57.0128 16.7826C56.8575 16.9452 56.8575 17.1079 56.8575 17.2705L58.2549 25.5649C58.4102 26.0528 57.7891 26.3781 57.4785 26.2154L50.1811 22.4748C50.0259 22.4748 49.8706 22.4748 49.7153 22.4748L42.5731 26.3781C42.1073 26.5407 41.6415 26.2154 41.7968 25.7275L43.1942 17.4332C43.1942 17.2705 43.1942 17.1079 43.0389 16.9452L37.1388 10.9278C36.8283 10.6025 36.9836 10.1146 37.4494 10.1146L45.3679 8.97617C45.5231 8.97617 45.6784 8.81357 45.8337 8.65091L49.4048 0.844443C49.7153 0.35654 50.3364 0.35654 50.4916 0.844443Z" fill="#FFC107"/>
<path d="M86.9523 0.844443L90.5234 8.48826C90.6786 8.65091 90.8339 8.81357 90.9892 8.81357L98.9077 9.952C99.3735 9.952 99.5288 10.6025 99.2182 10.9278L93.4735 16.7826C93.3182 16.9452 93.3182 17.1079 93.3182 17.2705L94.7156 25.5649C94.8708 26.0528 94.2498 26.3781 93.9392 26.2154L86.6418 22.4748C86.4866 22.4748 86.3313 22.4748 86.176 22.4748L79.0338 26.3781C78.568 26.5407 78.1022 26.2154 78.2575 25.7275L79.6549 17.4332C79.6549 17.2705 79.6549 17.1079 79.4996 16.9452L73.5995 10.9278C73.289 10.6025 73.4443 10.1146 73.9101 10.1146L81.8286 8.97617C81.9838 8.97617 82.1391 8.81357 82.2944 8.65091L85.8655 0.844443C86.176 0.35654 86.7971 0.35654 86.9523 0.844443Z" fill="#FFC107"/>
<path d="M123.413 0.844443L126.984 8.48826C127.139 8.65091 127.295 8.81357 127.45 8.81357L135.368 9.952C135.834 9.952 135.99 10.6025 135.679 10.9278L129.934 16.7826C129.779 16.9452 129.779 17.1079 129.779 17.2705L131.176 25.5649C131.332 26.0528 130.71 26.3781 130.4 26.2154L123.102 22.4748C122.947 22.4748 122.792 22.4748 122.637 22.4748L115.495 26.3781C115.029 26.5407 114.563 26.2154 114.718 25.7275L116.116 17.4332C116.116 17.2705 116.116 17.1079 115.96 16.9452L110.06 10.9278C109.75 10.6025 109.905 10.1146 110.371 10.1146L118.289 8.97617C118.445 8.97617 118.6 8.81357 118.755 8.65091L122.326 0.844443C122.637 0.35654 123.258 0.35654 123.413 0.844443Z" fill="#FFC107"/>
<path d="M159.874 0.844443L163.445 8.48826C163.6 8.65091 163.755 8.81357 163.911 8.81357L171.829 9.952C172.295 9.952 172.45 10.6025 172.14 10.9278L166.395 16.7826C166.24 16.9452 166.24 17.1079 166.24 17.2705L167.637 25.5649C167.792 26.0528 167.171 26.3781 166.861 26.2154L159.563 22.4748C159.408 22.4748 159.253 22.4748 159.097 22.4748L151.955 26.3781C151.489 26.5407 151.024 26.2154 151.179 25.7275L152.576 17.4332C152.576 17.2705 152.576 17.1079 152.421 16.9452L146.521 10.9278C146.21 10.6025 146.366 10.1146 146.831 10.1146L154.75 8.97617C154.905 8.97617 155.061 8.81357 155.216 8.65091L158.787 0.844443C159.097 0.35654 159.718 0.35654 159.874 0.844443Z" fill="#FFC107"/>
</svg>
