<svg width="44" height="44" viewBox="0 0 44 44" fill="none" xmlns="http://www.w3.org/2000/svg">
<rect width="44" height="44" rx="22" fill="#FEDF41"/>
<path d="M22 33.25C28.2132 33.25 33.25 28.2132 33.25 22C33.25 15.7868 28.2132 10.75 22 10.75C15.7868 10.75 10.75 15.7868 10.75 22C10.75 28.2132 15.7868 33.25 22 33.25Z" stroke="black" stroke-width="2" stroke-linecap="round" stroke-linejoin="round"/>
<path d="M22 28.25C25.4518 28.25 28.25 25.4518 28.25 22C28.25 18.5482 25.4518 15.75 22 15.75C18.5482 15.75 15.75 18.5482 15.75 22C15.75 25.4518 18.5482 28.25 22 28.25Z" stroke="black" stroke-width="2" stroke-linecap="round" stroke-linejoin="round"/>
<path d="M34.5 9.5L27 17" stroke="black" stroke-width="2" stroke-linecap="round" stroke-linejoin="round"/>
<path d="M25.75 10.75H33.25V18.25" stroke="black" stroke-width="2" stroke-linecap="round" stroke-linejoin="round"/>
</svg>
