<svg width="50" height="50" viewBox="0 0 50 50" fill="none" xmlns="http://www.w3.org/2000/svg">
<g clip-path="url(#clip0_1_252)">
<path d="M45.1447 40.2891L43.0436 42.3903L44.3119 43.6586H12.7672L14.0354 42.3903L11.9343 40.2891L7.0791 45.1443L11.9343 49.9995L14.0354 47.8983L12.7672 46.6301H44.3119L43.0436 47.8983L45.1447 49.9995L49.9999 45.1443L45.1447 40.2891Z" fill="#FEDF41"/>
<path d="M6.34092 37.2327V5.68799L7.60928 6.95635L9.71045 4.85518L4.85518 0L0 4.85518L2.10117 6.95635L3.36943 5.68799V37.2327L2.10117 35.9645L0 38.0656L4.85518 42.9208L9.71045 38.0656L7.60928 35.9645L6.34092 37.2327Z" fill="#FEDF41"/>
<path d="M15.562 25.2959H10.4199V39.5799H15.562V25.2959Z" fill="#FEDF41"/>
<path d="M35.1983 0.0078125H24.2949V6.15781H35.1983V0.0078125Z" fill="#FEDF41"/>
<path d="M49.9925 16.7705H38.1699V39.5797H49.9925V16.7705Z" fill="#FEDF41"/>
<path d="M10.4199 9.12891V22.3252H35.1979V16.7708V15.2851V9.12891H10.4199Z" fill="#FEDF41"/>
<path d="M21.3233 0.0078125H10.4199V6.15781H21.3233V0.0078125Z" fill="#FEDF41"/>
<path d="M35.1983 25.2959H18.5342V39.5799H35.1983V25.2959Z" fill="#FEDF41"/>
</g>
<defs>
<clipPath id="clip0_1_252">
<rect width="50" height="50" fill="white"/>
</clipPath>
</defs>
</svg>
