<svg width="14" height="14" viewBox="0 0 14 14" fill="none" xmlns="http://www.w3.org/2000/svg">
<path d="M6.48448 0.296015C6.66066 -0.0992292 7.22167 -0.0992303 7.39785 0.296014L9.03382 3.96618C9.10649 4.12919 9.26054 4.24112 9.43803 4.25985L13.4341 4.68161C13.8644 4.72703 14.0378 5.26058 13.7164 5.55028L10.7314 8.24033C10.5988 8.35981 10.5399 8.5409 10.577 8.7155L11.4107 12.6463C11.5005 13.0696 11.0466 13.3994 10.6718 13.1832L7.19097 11.1756C7.03637 11.0864 6.84596 11.0864 6.69135 11.1756L3.21055 13.1832C2.8357 13.3994 2.38183 13.0696 2.47162 12.6463L3.30535 8.7155C3.34239 8.5409 3.28354 8.35981 3.15096 8.24033L0.165973 5.55028C-0.155484 5.26058 0.0178764 4.72703 0.448218 4.68161L4.4443 4.25985C4.62179 4.24112 4.77584 4.12919 4.8485 3.96618L6.48448 0.296015Z" fill="#FFC107"/>
</svg>
