<svg width="14" height="22" viewBox="0 0 14 22" fill="none" xmlns="http://www.w3.org/2000/svg">
<path d="M10.9558 0.578922H13.9954V13.5581C13.9954 18.9441 10.8136 21.162 7.05236 21.162C3.50994 21.162 1.37796 18.7803 0.579721 16.8466L3.36777 15.6884C3.87062 16.8792 5.08431 18.2887 7.05236 18.2887C9.46867 18.2887 10.9558 16.7919 10.9558 13.9951V12.9464H10.8465C10.1247 13.8203 8.74713 14.6069 6.99777 14.6069C3.34584 14.6069 0 11.4276 0 7.33079C0 3.21187 3.34584 0 6.99777 0C8.73625 0 10.1247 0.775696 10.8465 1.62786H10.9558V0.578922ZM11.1743 7.33079C11.1743 4.75239 9.45779 2.87321 7.27105 2.87321C5.06237 2.87321 3.20367 4.75239 3.20367 7.33079C3.20367 9.87622 5.06237 11.7226 7.27105 11.7226C9.45796 11.7336 11.1745 9.87622 11.1745 7.33079" fill="#3686F7"/>
</svg>
