<svg width="50" height="50" viewBox="0 0 50 50" fill="none" xmlns="http://www.w3.org/2000/svg">
<path d="M19.9365 33.6578L23.8992 27.4006L17.853 24.6895L15.9755 27.4006L19.9365 33.6578Z" fill="#FEDF41"/>
<path d="M25.9532 27.4006L29.9159 33.6578L33.8767 27.4006L31.9988 24.6895L25.9532 27.4006Z" fill="#FEDF41"/>
<path d="M5.31125 50.0001H11.309H14.1602H19.6549H20.2339H24.98L27.5471 47.4631L27.9725 49.7276L27.7365 50.0001H29.915H30.1974H37.5033H38.9687H44.6904C45.7827 50.0001 46.3654 49.1689 45.9884 48.1425L39.5525 30.5624C39.4075 30.1486 39.1891 29.7884 38.9435 29.4451C38.8322 29.2876 38.5879 29.0277 38.5879 29.0277C38.0707 28.4448 37.4329 28.0291 36.7079 27.8457L35.5899 27.7354H34.4735C34.46 27.8147 34.4541 27.8977 34.4087 27.9694L33.6471 29.1735L30.8518 33.5868L30.4479 34.2266C30.3329 34.4085 30.1328 34.5167 29.9191 34.5167C29.7056 34.5167 29.5055 34.4085 29.3895 34.2266L27.5241 31.2809L27.9736 33.2266L25.6264 37.2133L26.0579 39.5176L23.4619 42.0826L24.3754 37.2133L22.0288 33.2266L22.5091 31.0884L20.5205 34.2266C20.4058 34.4085 20.2048 34.5167 19.9913 34.5167C19.7781 34.5167 19.5777 34.4085 19.4627 34.2266L18.9944 33.4894L17.0091 30.3549L15.5007 27.9713C15.4563 27.8977 15.449 27.8167 15.4365 27.7365H14.4148L13.2917 27.8457C12.5658 28.0303 11.9289 28.4469 11.4098 29.0287C11.4098 29.0287 11.1687 29.2896 11.0735 29.4192C10.8129 29.7865 10.5954 30.1518 10.448 30.5635L4.01194 48.1427C3.63527 49.1689 4.21764 50.0001 5.31125 50.0001ZM22.8372 45.4151L26.4886 41.8071L27.1198 45.1755L22.2519 49.9857L22.0292 49.7276L22.8372 45.4151Z" fill="#FEDF41"/>
<path d="M15.4069 17.262C15.2664 13.7501 15.1715 4.95476 17.6835 4.3569C18.6902 4.11425 19.2503 4.48457 19.9587 4.94934C21.2998 5.82923 23.7987 7.47534 33.2319 7.23475L33.5044 7.22803L33.6554 7.45463C33.7306 7.56736 35.4299 10.1871 35.6696 16.6211C35.9828 16.3687 36.3528 15.9948 36.6826 15.4952C36.9271 14.5223 37.0701 13.509 37.0701 12.4598C37.0701 5.7947 31.8393 0.371817 25.2548 0.0335979V0C25.1398 0 25.0377 0.0139991 24.9261 0.0158657C24.8186 0.0139991 24.7126 0 24.6015 0V0.0328513C18.0132 0.370137 12.7823 5.7919 12.7823 12.4575C12.7823 13.3998 12.8973 14.3133 13.0959 15.1952C13.774 16.1554 14.5946 17.036 15.4069 17.262Z" fill="#FEDF41"/>
<path d="M35.4073 17.9692L34.7143 18.2928L34.7027 17.5274C34.6178 11.8626 33.3681 9.01516 32.9601 8.23232C23.4554 8.42906 20.8322 6.7081 19.4153 5.77837C18.7687 5.35485 18.5005 5.18201 17.9118 5.32013C16.6341 5.62513 16.1421 12.028 16.4199 17.7859L16.4432 18.2686L15.9609 18.3035C15.9077 18.3074 15.8541 18.3093 15.8005 18.3093C15.1129 18.3093 14.4604 17.9899 13.8651 17.5149C15.7238 21.6816 19.7961 24.644 24.6002 24.8924V24.9252C24.7114 24.9252 24.8162 24.9098 24.925 24.9088C25.0357 24.9098 25.1387 24.9252 25.2535 24.9252V24.8924C29.9968 24.6469 34.0252 21.7545 35.9137 17.6702C35.6354 17.857 35.4392 17.9541 35.4073 17.9692Z" fill="#FEDF41"/>
</svg>
