<svg width="1283" height="41" viewBox="0 0 1283 41" fill="none" xmlns="http://www.w3.org/2000/svg">
<rect width="41" height="41" rx="20.5" transform="matrix(-1 0 0 1 41 0)" fill="#535353"/>
<path fill-rule="evenodd" clip-rule="evenodd" d="M16.3429 21.2116L21.9999 26.8686L23.4139 25.4546L18.4639 20.5046L23.4139 15.5546L21.9999 14.1406L16.3429 19.7976C16.1555 19.9852 16.0502 20.2395 16.0502 20.5046C16.0502 20.7698 16.1555 21.0241 16.3429 21.2116Z" fill="white"/>
<rect x="1242" width="41" height="41" rx="20.5" fill="#535353"/>
<path fill-rule="evenodd" clip-rule="evenodd" d="M1266.66 21.2116L1261 26.8686L1259.59 25.4546L1264.54 20.5046L1259.59 15.5546L1261 14.1406L1266.66 19.7976C1266.84 19.9852 1266.95 20.2395 1266.95 20.5046C1266.95 20.7698 1266.84 21.0241 1266.66 21.2116Z" fill="white"/>
</svg>
