<svg width="50" height="50" viewBox="0 0 50 50" fill="none" xmlns="http://www.w3.org/2000/svg">
<g clip-path="url(#clip0_1_238)">
<path d="M29.0632 0.47168H19.2323C18.3511 0.47168 17.6367 1.18613 17.6367 2.06729C17.6367 3.09952 17.6367 11.1117 17.6367 12.4927L8.69238 30.2758L20.4779 25.7199C20.8785 25.565 21.3248 25.5783 21.7158 25.7567L29.2235 29.184L20.828 12.4927V9.99308H29.0631C29.9444 9.99308 30.6587 9.27863 30.6587 8.39748V2.06739C30.6588 1.18613 29.9444 0.47168 29.0632 0.47168Z" fill="#FEDF41"/>
<path d="M38.293 47.2164C36.7674 44.1831 33.0269 36.7453 31.514 33.7375L21.0018 28.9385L6.55613 34.5229L0.171741 47.2164C-0.360877 48.2755 0.40973 49.529 1.59713 49.529H36.8675C38.0528 49.529 38.8266 48.2772 38.293 47.2164Z" fill="#FEDF41"/>
<path d="M49.8282 47.2158L38.2931 24.2825C37.7044 23.1118 36.0297 23.114 35.4421 24.2825L32.8867 29.3636C36.0184 35.5897 34.1544 31.8837 41.1442 45.7819C41.7412 46.9689 41.8148 48.3121 41.3808 49.5284H48.4028C49.5885 49.5284 50.3617 48.2763 49.8282 47.2158Z" fill="#FEDF41"/>
</g>
<defs>
<clipPath id="clip0_1_238">
<rect width="50" height="50" fill="white"/>
</clipPath>
</defs>
</svg>
