<svg width="15" height="15" viewBox="0 0 15 15" fill="none" xmlns="http://www.w3.org/2000/svg">
<path d="M13.9252 10.6137V12.6137C13.926 12.7994 13.888 12.9832 13.8136 13.1533C13.7392 13.3234 13.6301 13.4761 13.4933 13.6016C13.3565 13.7272 13.195 13.8227 13.0191 13.8822C12.8432 13.9417 12.6568 13.9638 12.4719 13.9471C10.4205 13.7242 8.44991 13.0232 6.71858 11.9004C5.1078 10.8768 3.74214 9.51117 2.71858 7.90039C1.5919 6.16119 0.890744 4.18105 0.671915 2.12039C0.655255 1.93603 0.677165 1.75023 0.736249 1.57481C0.795332 1.39938 0.890296 1.23818 1.01509 1.10147C1.13989 0.964759 1.29178 0.85553 1.46111 0.780738C1.63043 0.705947 1.81348 0.667231 1.99858 0.667057H3.99858C4.32212 0.663873 4.63578 0.778443 4.88109 0.989412C5.1264 1.20038 5.28663 1.49335 5.33192 1.81372C5.41633 2.45377 5.57288 3.08221 5.79858 3.68706C5.88828 3.92567 5.90769 4.185 5.85452 4.43431C5.80135 4.68362 5.67782 4.91246 5.49858 5.09372L4.65192 5.94039C5.60095 7.60942 6.98288 8.99135 8.65192 9.94039L9.49858 9.09372C9.67984 8.91448 9.90868 8.79096 10.158 8.73779C10.4073 8.68462 10.6666 8.70403 10.9052 8.79372C11.5101 9.01942 12.1385 9.17598 12.7786 9.26039C13.1024 9.30608 13.3982 9.46919 13.6096 9.71872C13.821 9.96825 13.9334 10.2868 13.9252 10.6137Z" stroke="#0F1131" stroke-width="1.33333" stroke-linecap="round" stroke-linejoin="round"/>
</svg>
