<svg width="21" height="27" viewBox="0 0 21 27" fill="none" xmlns="http://www.w3.org/2000/svg">
<path d="M18.75 2.8125H15.9375V1.875C15.9375 1.37772 15.74 0.900805 15.3883 0.549175C15.0367 0.197544 14.5598 0 14.0625 0H6.5625C6.06522 0 5.58831 0.197544 5.23668 0.549175C4.88504 0.900805 4.6875 1.37772 4.6875 1.875V2.8125H1.875C1.37772 2.8125 0.900805 3.01004 0.549175 3.36167C0.197544 3.71331 0 4.19022 0 4.6875V24.375C0 24.8723 0.197544 25.3492 0.549175 25.7008C0.900805 26.0525 1.37772 26.25 1.875 26.25H18.75C19.2473 26.25 19.7242 26.0525 20.0758 25.7008C20.4275 25.3492 20.625 24.8723 20.625 24.375V4.6875C20.625 4.19022 20.4275 3.71331 20.0758 3.36167C19.7242 3.01004 19.2473 2.8125 18.75 2.8125ZM6.5625 1.875H14.0625V5.625H6.5625V1.875ZM18.75 24.375H1.875V4.6875H4.6875V7.5H15.9375V4.6875H18.75V24.375Z" fill="#FEDF41"/>
</svg>
