<svg width="25" height="25" viewBox="0 0 25 25" fill="none" xmlns="http://www.w3.org/2000/svg">
<path d="M0 25C0 22.6875 0.3075 20.7137 0.9225 19.0787C1.5375 17.4437 2.32333 16.0842 3.28 15C4.23667 13.9158 5.31 13.0771 6.5 12.4837C7.69 11.8904 8.85667 11.4792 10 11.25V7.5C7.14583 7.14583 4.76583 6.26542 2.86 4.85875C0.954167 3.45208 0.000833333 1.8325 0 0H25C25 1.83333 24.0471 3.45333 22.1412 4.86C20.2354 6.26667 17.855 7.14667 15 7.5V11.25C16.1458 11.4792 17.3125 11.8908 18.5 12.485C19.6875 13.0792 20.7604 13.9175 21.7187 15C22.6771 16.0825 23.4637 17.4421 24.0787 19.0787C24.6937 20.7154 25.0008 22.6892 25 25H17.5V22.5H22.3437C21.9687 19.3333 20.7862 17.0417 18.7962 15.625C16.8062 14.2083 14.7075 13.5 12.5 13.5C10.2925 13.5 8.19333 14.2083 6.2025 15.625C4.21167 17.0417 3.02958 19.3333 2.65625 22.5H7.5V25H0ZM12.5 5.15625C14.3958 5.15625 16.0833 4.90125 17.5625 4.39125C19.0417 3.88125 20.2187 3.25083 21.0937 2.5H3.90625C4.78125 3.25 5.95833 3.88042 7.4375 4.39125C8.91667 4.90208 10.6042 5.15708 12.5 5.15625ZM12.5 25C11.8125 25 11.2242 24.7554 10.735 24.2662C10.2458 23.7771 10.0008 23.1883 10 22.5C10 22.1458 10.0679 21.8229 10.2037 21.5312C10.3396 21.2396 10.5217 20.9792 10.75 20.75C11.25 20.25 12.0937 19.7237 13.2812 19.1712C14.4687 18.6187 15.875 18.0617 17.5 17.5C16.9167 19.125 16.3542 20.5312 15.8125 21.7187C15.2708 22.9062 14.75 23.75 14.25 24.25C14.0208 24.4792 13.7604 24.6617 13.4687 24.7975C13.1771 24.9333 12.8542 25.0008 12.5 25Z" fill="#FEDF41"/>
</svg>
