<svg width="48" height="48" viewBox="0 0 48 48" fill="none" xmlns="http://www.w3.org/2000/svg">
<path d="M16.5482 43.4581C16.9222 43.8611 16.9002 44.4991 16.4982 44.8741L14.3262 46.9051C13.9242 47.2801 13.2892 47.2581 12.9152 46.8541L0.266161 33.2221C-0.107839 32.8191 -0.0848387 32.1821 0.317161 31.8061L2.49216 29.7781C2.89416 29.4021 3.52916 29.4251 3.90316 29.8291L16.5482 43.4581ZM32.6882 17.8081C33.0622 18.2111 33.0392 18.8491 32.6372 19.2241L18.9672 31.9941C18.5652 32.3691 17.9302 32.3471 17.5562 31.9431L14.2932 28.4221C13.9192 28.0191 13.9422 27.3811 14.3442 27.0061L28.0112 14.2361C28.4122 13.8611 29.0472 13.8831 29.4212 14.2871L32.6882 17.8081ZM21.1992 39.1111C21.5732 39.5141 21.5502 40.1511 21.1482 40.5271L18.9732 42.5571C18.5712 42.9331 17.9362 42.9101 17.5622 42.5061L4.92016 28.8741C4.54616 28.4711 4.56816 27.8331 4.97016 27.4581L7.14116 25.4291C7.54316 25.0541 8.17816 25.0761 8.55216 25.4801L21.1992 39.1111ZM42.2622 18.2971C42.6362 18.7001 42.6132 19.3381 42.2102 19.7131L40.0362 21.7431C39.6342 22.1181 38.9992 22.0961 38.6242 21.6931L25.9802 8.06412C25.6052 7.66112 25.6282 7.02412 26.0302 6.64812L28.2102 4.61312C28.6112 4.23812 29.2462 4.26012 29.6202 4.66412L42.2622 18.2971ZM46.9062 13.9571C47.2802 14.3601 47.2572 14.9981 46.8552 15.3741L44.6852 17.4031C44.2842 17.7791 43.6492 17.7561 43.2752 17.3531L30.6332 3.71812C30.2592 3.31512 30.2812 2.67712 30.6832 2.30112L32.8552 0.268123C33.2562 -0.107877 33.8902 -0.0858772 34.2642 0.318123L46.9062 13.9571Z" fill="#FEDF41"/>
</svg>
