<svg width="27" height="29" viewBox="0 0 27 29" fill="none" xmlns="http://www.w3.org/2000/svg">
<path d="M3.25426 17.0033C3.01772 17.0041 2.7858 16.9377 2.58545 16.812C2.38511 16.6862 2.22456 16.5062 2.12245 16.2928C2.02035 16.0795 1.98088 15.8415 2.00864 15.6066C2.0364 15.3717 2.13024 15.1495 2.27926 14.9658L14.6543 2.21576C14.7471 2.10861 14.8736 2.0362 15.013 2.01042C15.1524 1.98464 15.2964 2.00702 15.4214 2.07389C15.5464 2.14075 15.645 2.24813 15.7009 2.37839C15.7569 2.50865 15.7669 2.65407 15.7293 2.79076L13.3293 10.3158C13.2585 10.5052 13.2347 10.7089 13.26 10.9095C13.2853 11.1101 13.3588 11.3016 13.4744 11.4675C13.5899 11.6335 13.744 11.7689 13.9234 11.8622C14.1027 11.9555 14.3021 12.0039 14.5043 12.0033H23.2543C23.4908 12.0024 23.7227 12.0688 23.9231 12.1945C24.1234 12.3203 24.284 12.5003 24.3861 12.7137C24.4882 12.9271 24.5276 13.165 24.4999 13.3999C24.4721 13.6348 24.3783 13.8571 24.2293 14.0408L11.8543 26.7908C11.7614 26.8979 11.6349 26.9703 11.4955 26.9961C11.3561 27.0219 11.2121 26.9995 11.0871 26.9326C10.9621 26.8658 10.8635 26.7584 10.8076 26.6281C10.7517 26.4979 10.7417 26.3524 10.7793 26.2158L13.1793 18.6908C13.25 18.5013 13.2738 18.2976 13.2485 18.097C13.2232 17.8964 13.1497 17.7049 13.0342 17.539C12.9186 17.373 12.7645 17.2376 12.5852 17.1443C12.4058 17.051 12.2065 17.0026 12.0043 17.0033H3.25426Z" stroke="#E2B912" stroke-width="4" stroke-linecap="round" stroke-linejoin="round"/>
</svg>
