<svg width="59" height="48" viewBox="0 0 59 48" fill="none" xmlns="http://www.w3.org/2000/svg">
<path d="M36.0003 2.66699H22.667L16.0003 10.667H8.00033C6.58584 10.667 5.22928 11.2289 4.22909 12.2291C3.2289 13.2293 2.66699 14.5858 2.66699 16.0003V40.0003C2.66699 41.4148 3.2289 42.7714 4.22909 43.7716C5.22928 44.7718 6.58584 45.3337 8.00033 45.3337H50.667C52.0815 45.3337 53.438 44.7718 54.4382 43.7716C55.4384 42.7714 56.0003 41.4148 56.0003 40.0003V16.0003C56.0003 14.5858 55.4384 13.2293 54.4382 12.2291C53.438 11.2289 52.0815 10.667 50.667 10.667H42.667L36.0003 2.66699Z" stroke="#E2B912" stroke-width="5.33333" stroke-linecap="round" stroke-linejoin="round"/>
</svg>
