<svg width="14" height="15" viewBox="0 0 14 15" fill="none" xmlns="http://www.w3.org/2000/svg">
<path d="M10.8461 9.70154L13.3391 11.3622C12.53 12.553 10.5948 14.5962 7.24893 14.5962C3.09415 14.5962 0 11.3841 0 7.29799C0 2.94985 3.12697 0 6.89913 0C10.6931 0 12.5518 3.01527 13.1532 4.64313L13.4813 5.47354L3.70652 9.51582C4.45 10.9799 5.6091 11.7228 7.24893 11.7228C8.88912 11.7228 10.0261 10.9143 10.8461 9.70154ZM3.18173 7.06878L9.70912 4.35919C9.34826 3.45249 8.27692 2.80797 6.99742 2.80797C5.36846 2.80797 3.1052 4.2501 3.18173 7.06878Z" fill="#FF302F"/>
</svg>
