<svg width="23" height="23" viewBox="0 0 23 23" fill="none" xmlns="http://www.w3.org/2000/svg">
<path d="M11.5569 19.6546C6.97566 19.6546 3.38954 15.9618 3.38954 11.3841C3.38954 6.80658 6.97566 3.11383 11.5569 3.11383C14.028 3.11383 15.832 4.08613 17.1659 5.33166L19.3637 3.13575C17.505 1.35497 15.023 0 11.5569 0C5.28106 0.000175378 0 5.11331 0 11.3841C0 17.6549 5.28106 22.7682 11.5569 22.7682C14.9465 22.7682 17.505 21.6539 19.5058 19.5781C21.5613 17.5241 22.1954 14.6398 22.1954 12.3019C22.1954 11.5698 22.108 10.8161 22.0095 10.2589H11.5569V13.2961H19.0028C18.7841 15.1972 18.1828 16.4973 17.2972 17.382C16.2256 18.4638 14.531 19.6546 11.5569 19.6546Z" fill="#3686F7"/>
</svg>
