<svg width="19" height="19" viewBox="0 0 19 19" fill="none" xmlns="http://www.w3.org/2000/svg">
<path d="M13.8654 0.792676L11.6728 0.789062C9.20954 0.789062 7.61766 2.46676 7.61766 5.06345V7.03424H5.41312C5.22262 7.03424 5.06836 7.19288 5.06836 7.38857V10.244C5.06836 10.4397 5.2228 10.5982 5.41312 10.5982H7.61766V17.8033C7.61766 17.999 7.77192 18.1575 7.96242 18.1575H10.8387C11.0292 18.1575 11.1835 17.9988 11.1835 17.8033V10.5982H13.7611C13.9516 10.5982 14.1059 10.4397 14.1059 10.244L14.1069 7.38857C14.1069 7.29461 14.0705 7.20463 14.0059 7.13813C13.9414 7.07164 13.8534 7.03424 13.762 7.03424H11.1835V5.36358C11.1835 4.5606 11.3698 4.15296 12.388 4.15296L13.865 4.15242C14.0554 4.15242 14.2096 3.99377 14.2096 3.79827V1.14683C14.2096 0.951502 14.0555 0.793038 13.8654 0.792676Z" fill="white"/>
</svg>
