<svg width="19" height="14" viewBox="0 0 19 14" fill="none" xmlns="http://www.w3.org/2000/svg">
<path d="M9.47363 0C9.50582 3.01038e-06 15.4077 0.00164407 16.8867 0.40625C17.6983 0.624819 18.3382 1.26449 18.5566 2.07617C18.9602 3.55064 18.9474 6.61464 18.9473 6.64844C18.9473 6.64844 18.9478 9.72332 18.5576 11.2061C18.339 12.0176 17.6984 12.6576 16.8867 12.876C15.4034 13.2662 9.47363 13.2666 9.47363 13.2666C9.46376 13.2666 3.55794 13.2657 2.06055 12.8604C1.24892 12.6418 0.609234 12.0019 0.390625 11.1904C0.000467401 9.72333 0 6.63281 0 6.63281C1.24427e-05 6.59833 0.0027313 3.55042 0.390625 2.07617C0.60905 1.26463 1.26462 0.609049 2.06055 0.390625C3.54387 0.000418961 9.47363 0 9.47363 0ZM7.58496 9.47461L12.5166 6.63379L7.58496 3.79297V9.47461Z" fill="white"/>
</svg>
