<svg width="16" height="16" viewBox="0 0 16 16" fill="none" xmlns="http://www.w3.org/2000/svg">
<path d="M7.97363 0C11.2296 0 12.8577 4.39559e-05 13.999 0.829102C14.3676 1.09692 14.6921 1.42142 14.96 1.79004C15.7891 2.9314 15.7891 4.55937 15.7891 7.81543V7.97363C15.7891 11.2297 15.7891 12.8577 14.96 13.999C14.6921 14.3676 14.3676 14.6921 13.999 14.96C12.8577 15.7891 11.2297 15.7891 7.97363 15.7891H7.81543C4.55937 15.7891 2.9314 15.7891 1.79004 14.96C1.42142 14.6921 1.09692 14.3676 0.829102 13.999C4.45949e-05 12.8577 0 11.2296 0 7.97363V7.81543C3.42682e-10 4.55942 3.44057e-06 2.9314 0.829102 1.79004C1.09692 1.42142 1.42142 1.09692 1.79004 0.829102C2.93139 4.0796e-06 4.55942 3.69157e-10 7.81543 0H7.97363ZM7.89453 3.71484C5.58658 3.71495 3.71506 5.58563 3.71484 7.89355C3.71484 10.2017 5.58645 12.0731 7.89453 12.0732C10.2027 12.0732 12.0742 10.2017 12.0742 7.89355C12.074 5.58557 10.2026 3.71484 7.89453 3.71484ZM7.89453 5.28125C9.33426 5.28125 10.5066 6.45283 10.5068 7.89355C10.5068 9.33342 9.33439 10.5059 7.89453 10.5059C6.45476 10.5058 5.28223 9.33335 5.28223 7.89355C5.28244 6.45289 6.45489 5.28135 7.89453 5.28125ZM12.3877 2.84473C12.0802 2.84473 11.8312 3.09392 11.8311 3.40137C11.8311 3.70895 12.0801 3.95898 12.3877 3.95898C12.6953 3.95898 12.9443 3.70895 12.9443 3.40137C12.9442 3.09392 12.6952 2.84473 12.3877 2.84473Z" fill="white"/>
</svg>
