<svg width="30" height="30" viewBox="0 0 30 30" fill="none" xmlns="http://www.w3.org/2000/svg">
<path d="M9.75 13.5C11.4076 13.5 12.9973 12.8415 14.1694 11.6694C15.3415 10.4973 16 8.9076 16 7.25C16 5.5924 15.3415 4.00269 14.1694 2.83058C12.9973 1.65848 11.4076 1 9.75 1C8.0924 1 6.50269 1.65848 5.33058 2.83058C4.15848 4.00269 3.5 5.5924 3.5 7.25C3.5 8.9076 4.15848 10.4973 5.33058 11.6694C6.50269 12.8415 8.0924 13.5 9.75 13.5ZM9.75 13.5C12.2663 13.5 14.465 14.45 16.0287 16.0287C16.9559 16.9687 17.6495 18.1132 18.0537 19.37M9.75 13.5C4.75 13.5 1 17.25 1 22.25V28.5H13.5M14.75 23.28L19.9875 27.25L28.5 16" stroke="#FEDF41" stroke-width="2"/>
</svg>
